# xmcd
#
# Track frame offsets: 
#        150
#        19753
#        44556
#        61155
#        77271
#        100534
#        116729
#        131415
#        152291
#        172809
#
# Disc length: 2603 seconds
#
# Revision: 0
# Processed by: cddbd v1.5.2PL0 Copyright (c) Steve Scherf et al.
# Submitted via: ExactAudioCopy v1.3
#
DISCID=670a290a
DTITLE=Michael Osborn - Hangin' On
DYEAR=2018
DGENRE=Blues
TTITLE0=Hangin' On
TTITLE1=It's Your Move
TTITLE2=Fallin' For You
TTITLE3=Hey Baby
TTITLE4=When The Blues Comes Around
TTITLE5=Doctor Please
TTITLE6=Say I Do
TTITLE7=When I Listen The Blues
TTITLE8=Mint Gin
TTITLE9=Between A Tear And A Good Time
EXTD=
EXTT0=
EXTT1=
EXTT2=
EXTT3=
EXTT4=
EXTT5=
EXTT6=
EXTT7=
EXTT8=
EXTT9=
PLAYORDER=
